<svg version="1.1" xmlns="http://www.w3.org/2000/svg" xmlns:xlink="http://www.w3.org/1999/xlink" width="763" height="749"><defs><clipPath id="tePLTkuaSMTW"><path fill="none" stroke="none" d=" M 0 0 L 763 0 L 763 749 L 0 749 L 0 0 Z"/></clipPath></defs><g transform="scale(1,1)" clip-path="url(#tePLTkuaSMTW)"><g transform="translate(-296,-169)"><rect fill="rgb(255,255,255)" stroke="none" x="0" y="0" width="1204" height="1073" fill-opacity="1"/><path fill="rgb(0,0,255)" stroke="none" paint-order="stroke fill markers" fill-rule="evenodd" d=" M 989.490012583067 255.6213717123527 L 513.2588171393692 208.8008890142362 L 347.3805355803284 687.707540612114 L 732.6462217819716 869.6385590962241 L 871.7699417992317 620.8211367576619 Z" fill-opacity="0.09803921568627451"/><g transform="scale(19,19) translate(33.26315789473684,28.36578547368421) scale(3,3)"><g transform="translate(0,0)"><path fill="rgb(0,0,255)" stroke="none" paint-order="stroke fill markers" d=" M 0.496 -0.157 L 0.496 -0.157 Q 0.496 -0.139 0.449 -0.092 Q 0.355 0.002 0.245 0.02 Q 0.223 0.024 0.202 0.024 Q 0.083 0.024 0.036000000000000004 -0.078 Q 0.012 -0.13 0.012 -0.203 Q 0.012 -0.332 0.079 -0.459 Q 0.108 -0.514 0.147 -0.558 Q 0.23700000000000002 -0.66 0.365 -0.6930000000000001 Q 0.40900000000000003 -0.705 0.452 -0.705 Q 0.534 -0.705 0.534 -0.642 Q 0.534 -0.614 0.51 -0.559 Q 0.485 -0.505 0.47500000000000003 -0.49 Q 0.454 -0.464 0.418 -0.453 Q 0.41000000000000003 -0.451 0.405 -0.451 Q 0.394 -0.451 0.394 -0.458 Q 0.394 -0.462 0.405 -0.482 Q 0.419 -0.507 0.432 -0.539 Q 0.449 -0.5760000000000001 0.449 -0.599 Q 0.449 -0.65 0.386 -0.65 Q 0.27 -0.65 0.197 -0.548 Q 0.195 -0.546 0.192 -0.542 Q 0.111 -0.425 0.099 -0.28 Q 0.097 -0.262 0.097 -0.246 Q 0.097 -0.105 0.184 -0.053 Q 0.221 -0.031 0.268 -0.031 Q 0.356 -0.031 0.40900000000000003 -0.113 Q 0.441 -0.157 0.486 -0.164 Q 0.496 -0.164 0.496 -0.157 Z"/></g><g transform="scale(0.3333333333333333,0.3333333333333333) translate(-33.26315789473684,-28.36578547368421)"/></g><path fill="none" stroke="rgb(0,0,255)" paint-order="fill stroke markers" d=" M 989.490012583067 255.6213717123527 L 513.2588171393692 208.8008890142362" stroke-opacity="1" stroke-linecap="round" stroke-linejoin="round" stroke-miterlimit="10" stroke-width="0.5"/><path fill="none" stroke="rgb(0,0,255)" paint-order="fill stroke markers" d=" M 513.2588171393692 208.8008890142362 L 347.3805355803284 687.707540612114" stroke-opacity="1" stroke-linecap="round" stroke-linejoin="round" stroke-miterlimit="10" stroke-width="0.5"/><path fill="none" stroke="rgb(0,0,255)" paint-order="fill stroke markers" d=" M 347.3805355803284 687.707540612114 L 732.6462217819716 869.6385590962241" stroke-opacity="1" stroke-linecap="round" stroke-linejoin="round" stroke-miterlimit="10" stroke-width="0.5"/><path fill="none" stroke="rgb(0,0,255)" paint-order="fill stroke markers" d=" M 732.6462217819716 869.6385590962241 L 871.7699417992317 620.8211367576619" stroke-opacity="1" stroke-linecap="round" stroke-linejoin="round" stroke-miterlimit="10" stroke-width="0.5"/><path fill="none" stroke="rgb(0,0,255)" paint-order="fill stroke markers" d=" M 871.7699417992317 620.8211367576619 L 989.490012583067 255.6213717123527" stroke-opacity="1" stroke-linecap="round" stroke-linejoin="round" stroke-miterlimit="10" stroke-width="0.5"/><path fill="none" stroke="rgb(0,0,0)" paint-order="fill stroke markers" d=" M 989.490012583067 255.6213717123527 L 788.6258128674284 235.87348690884892" stroke-opacity="0.6980392156862745" stroke-linejoin="round" stroke-miterlimit="10" stroke-width="1.5" stroke-dasharray="9.5,8"/><path fill="rgb(0,0,0)" stroke="none" paint-order="stroke fill markers" fill-rule="evenodd" d=" M 773.6977847525783 234.4058436953103 L 788.9927236708131 232.1414798801364 L 788.2589020640437 239.60549393756145 Z" fill-opacity="0.6980392156862745"/><path fill="none" stroke="rgb(0,0,0)" paint-order="fill stroke markers" d=" M 989.490012583067 255.6213717123527 L 940.1980278543524 408.53855160938843" stroke-opacity="0.6980392156862745" stroke-linejoin="round" stroke-miterlimit="10" stroke-width="1.5" stroke-dasharray="9.5,8"/><path fill="rgb(0,0,0)" stroke="none" paint-order="stroke fill markers" fill-rule="evenodd" d=" M 935.596042159327 422.8151663223651 L 936.6288741761083 407.3880551856321 L 943.7671815325965 409.6890480331448 Z" fill-opacity="0.6980392156862745"/><path fill="none" stroke="rgb(0,0,0)" paint-order="fill stroke markers" d=" M 989.490012583067 255.6213717123527 L 866.3238065919613 378.7875777034589" stroke-opacity="0.6980392156862745" stroke-linejoin="round" stroke-miterlimit="10" stroke-width="1.5" stroke-dasharray="9.5,8"/><path fill="rgb(0,0,0)" stroke="none" paint-order="stroke fill markers" fill-rule="evenodd" d=" M 855.7172048741631 389.39417942125715 L 863.6721561625118 376.13592727400936 L 868.9754570214109 381.43922813290845 Z" fill-opacity="0.6980392156862745"/><path fill="none" stroke="rgb(0,0,0)" paint-order="fill stroke markers" d=" M 989.490012583067 255.6213717123527 L 809.9692052449844 313.18873962802" stroke-opacity="0.6980392156862745" stroke-linejoin="round" stroke-miterlimit="10" stroke-width="1.5" stroke-dasharray="9.5,8"/><path fill="rgb(0,0,0)" stroke="none" paint-order="stroke fill markers" fill-rule="evenodd" d=" M 795.6856335760943 317.76908681788234 L 808.8241184475189 309.6178467107975 L 811.11429204245 316.75963254524254 Z" fill-opacity="0.6980392156862745"/><path fill="rgb(77,77,255)" stroke="none" paint-order="stroke fill markers" d=" M 991.490012583067 255.6213717123527 C 991.490012583067 256.7259412120143 990.5945820827286 257.6213717123527 989.490012583067 257.6213717123527 C 988.3854430834054 257.6213717123527 987.490012583067 256.7259412120143 987.490012583067 255.6213717123527 C 987.490012583067 254.51680221269112 988.3854430834054 253.6213717123527 989.490012583067 253.6213717123527 C 990.5945820827286 253.6213717123527 991.490012583067 254.51680221269112 991.490012583067 255.6213717123527 Z" fill-opacity="1"/><path fill="none" stroke="rgb(0,0,0)" paint-order="fill stroke markers" d=" M 991.490012583067 255.6213717123527 C 991.490012583067 256.7259412120143 990.5945820827286 257.6213717123527 989.490012583067 257.6213717123527 C 988.3854430834054 257.6213717123527 987.490012583067 256.7259412120143 987.490012583067 255.6213717123527 C 987.490012583067 254.51680221269112 988.3854430834054 253.6213717123527 989.490012583067 253.6213717123527 C 990.5945820827286 253.6213717123527 991.490012583067 254.51680221269112 991.490012583067 255.6213717123527 Z" stroke-opacity="1" stroke-linecap="round" stroke-linejoin="round" stroke-miterlimit="10"/><g transform="scale(19,19) translate(52.473684210526315,13.213144107894736) scale(1.5,1.5)"><g transform="translate(0,0)"><path fill="rgb(77,77,255)" stroke="none" paint-order="stroke fill markers" d=" M 0.334 -0.302 L 0.3 -0.165 Q 0.28300000000000003 -0.097 0.28300000000000003 -0.077 Q 0.28300000000000003 -0.025 0.32 -0.014 Q 0.328 -0.011 0.338 -0.011 Q 0.388 -0.011 0.429 -0.061 Q 0.456 -0.093 0.47100000000000003 -0.14200000000000002 Q 0.47400000000000003 -0.153 0.484 -0.153 Q 0.496 -0.153 0.496 -0.14300000000000002 Q 0.496 -0.11800000000000001 0.465 -0.07100000000000001 Q 0.41100000000000003 0.011 0.336 0.011 Q 0.268 0.011 0.23700000000000002 -0.046 Q 0.231 -0.055 0.228 -0.065 Q 0.20400000000000001 -0.017 0.162 0.002 Q 0.14300000000000002 0.011 0.123 0.011 Q 0.063 0.011 0.039 -0.024 Q 0.029 -0.037 0.029 -0.055 Q 0.029 -0.092 0.061 -0.107 Q 0.07200000000000001 -0.113 0.084 -0.113 Q 0.114 -0.113 0.12 -0.088 Q 0.121 -0.083 0.121 -0.078 Q 0.121 -0.044 0.08700000000000001 -0.028 Q 0.081 -0.025 0.074 -0.024 Q 0.095 -0.011 0.124 -0.011 Q 0.177 -0.011 0.20800000000000002 -0.082 Q 0.214 -0.097 0.219 -0.115 Q 0.273 -0.319 0.273 -0.353 Q 0.267 -0.41500000000000004 0.219 -0.42 Q 0.167 -0.42 0.124 -0.367 L 0.124 -0.366 Q 0.124 -0.365 0.123 -0.365 Q 0.108 -0.34500000000000003 0.096 -0.319 Q 0.091 -0.307 0.08700000000000001 -0.295 L 0.085 -0.289 Q 0.083 -0.278 0.07200000000000001 -0.278 Q 0.06 -0.278 0.06 -0.28800000000000003 Q 0.06 -0.313 0.092 -0.36 Q 0.146 -0.442 0.221 -0.442 Q 0.298 -0.442 0.329 -0.366 Q 0.361 -0.428 0.41400000000000003 -0.44 Q 0.424 -0.442 0.434 -0.442 Q 0.493 -0.442 0.517 -0.40900000000000003 Q 0.527 -0.395 0.527 -0.376 Q 0.527 -0.335 0.49 -0.321 Q 0.481 -0.318 0.47300000000000003 -0.318 Q 0.442 -0.318 0.436 -0.34500000000000003 Q 0.435 -0.34900000000000003 0.435 -0.353 Q 0.435 -0.383 0.464 -0.4 Q 0.47300000000000003 -0.405 0.483 -0.40700000000000003 Q 0.462 -0.42 0.433 -0.42 Q 0.365 -0.42 0.337 -0.314 Q 0.335 -0.308 0.334 -0.302 Z"/></g><g transform="translate(0.571528,-0.412892) scale(0.7,0.7)"><path fill="rgb(77,77,255)" stroke="none" paint-order="stroke fill markers" d=" M 0.23900000000000002 -0.157 L 0.23900000000000002 -0.157 L 0.12 -0.027 Q 0.11 -0.016 0.105 -0.016 Q 0.094 -0.016 0.094 -0.027 Q 0.094 -0.029 0.101 -0.043000000000000003 L 0.194 -0.209 L 0.02 -0.289 Q 0.005 -0.296 0.004 -0.304 Q 0.004 -0.314 0.015 -0.314 Q 0.02 -0.314 0.03 -0.312 L 0.215 -0.275 L 0.23700000000000002 -0.463 Q 0.24 -0.484 0.25 -0.485 Q 0.258 -0.485 0.26 -0.47500000000000003 L 0.261 -0.47400000000000003 Q 0.261 -0.47100000000000003 0.262 -0.463 L 0.28500000000000003 -0.275 Q 0.48 -0.314 0.485 -0.314 Q 0.496 -0.314 0.496 -0.304 Q 0.496 -0.296 0.481 -0.289 L 0.307 -0.209 L 0.34600000000000003 -0.137 Q 0.406 -0.031 0.406 -0.027 Q 0.406 -0.016 0.395 -0.016 Q 0.391 -0.016 0.387 -0.021 Q 0.357 -0.051000000000000004 0.299 -0.115 L 0.252 -0.165 Q 0.251 -0.166 0.25 -0.166 Q 0.245 -0.166 0.23900000000000002 -0.157 Z"/></g><g transform="scale(0.6666666666666666,0.6666666666666666) translate(-52.473684210526315,-13.213144107894736)"/></g><path fill="rgb(77,77,255)" stroke="none" paint-order="stroke fill markers" d=" M 515.2588171393692 208.8008890142362 C 515.2588171393692 209.90545851389777 514.3633866390308 210.8008890142362 513.2588171393692 210.8008890142362 C 512.1542476397076 210.8008890142362 511.25881713936917 209.90545851389777 511.25881713936917 208.8008890142362 C 511.25881713936917 207.6963195145746 512.1542476397076 206.8008890142362 513.2588171393692 206.8008890142362 C 514.3633866390308 206.8008890142362 515.2588171393692 207.6963195145746 515.2588171393692 208.8008890142362 Z" fill-opacity="1"/><path fill="none" stroke="rgb(0,0,0)" paint-order="fill stroke markers" d=" M 515.2588171393692 208.8008890142362 C 515.2588171393692 209.90545851389777 514.3633866390308 210.8008890142362 513.2588171393692 210.8008890142362 C 512.1542476397076 210.8008890142362 511.25881713936917 209.90545851389777 511.25881713936917 208.8008890142362 C 511.25881713936917 207.6963195145746 512.1542476397076 206.8008890142362 513.2588171393692 206.8008890142362 C 514.3633866390308 206.8008890142362 515.2588171393692 207.6963195145746 515.2588171393692 208.8008890142362 Z" stroke-opacity="1" stroke-linecap="round" stroke-linejoin="round" stroke-miterlimit="10"/><path fill="rgb(77,77,255)" stroke="none" paint-order="stroke fill markers" d=" M 349.3805355803284 687.707540612114 C 349.3805355803284 688.8121101117756 348.48510507999 689.707540612114 347.3805355803284 689.707540612114 C 346.2759660806668 689.707540612114 345.3805355803284 688.8121101117756 345.3805355803284 687.707540612114 C 345.3805355803284 686.6029711124525 346.2759660806668 685.707540612114 347.3805355803284 685.707540612114 C 348.48510507999 685.707540612114 349.3805355803284 686.6029711124525 349.3805355803284 687.707540612114 Z" fill-opacity="1"/><path fill="none" stroke="rgb(0,0,0)" paint-order="fill stroke markers" d=" M 349.3805355803284 687.707540612114 C 349.3805355803284 688.8121101117756 348.48510507999 689.707540612114 347.3805355803284 689.707540612114 C 346.2759660806668 689.707540612114 345.3805355803284 688.8121101117756 345.3805355803284 687.707540612114 C 345.3805355803284 686.6029711124525 346.2759660806668 685.707540612114 347.3805355803284 685.707540612114 C 348.48510507999 685.707540612114 349.3805355803284 686.6029711124525 349.3805355803284 687.707540612114 Z" stroke-opacity="1" stroke-linecap="round" stroke-linejoin="round" stroke-miterlimit="10"/><path fill="rgb(77,77,255)" stroke="none" paint-order="stroke fill markers" d=" M 734.6462217819716 869.6385590962241 C 734.6462217819716 870.7431285958857 733.7507912816332 871.6385590962241 732.6462217819716 871.6385590962241 C 731.54165228231 871.6385590962241 730.6462217819716 870.7431285958857 730.6462217819716 869.6385590962241 C 730.6462217819716 868.5339895965625 731.54165228231 867.6385590962241 732.6462217819716 867.6385590962241 C 733.7507912816332 867.6385590962241 734.6462217819716 868.5339895965625 734.6462217819716 869.6385590962241 Z" fill-opacity="1"/><path fill="none" stroke="rgb(0,0,0)" paint-order="fill stroke markers" d=" M 734.6462217819716 869.6385590962241 C 734.6462217819716 870.7431285958857 733.7507912816332 871.6385590962241 732.6462217819716 871.6385590962241 C 731.54165228231 871.6385590962241 730.6462217819716 870.7431285958857 730.6462217819716 869.6385590962241 C 730.6462217819716 868.5339895965625 731.54165228231 867.6385590962241 732.6462217819716 867.6385590962241 C 733.7507912816332 867.6385590962241 734.6462217819716 868.5339895965625 734.6462217819716 869.6385590962241 Z" stroke-opacity="1" stroke-linecap="round" stroke-linejoin="round" stroke-miterlimit="10"/><path fill="rgb(77,77,255)" stroke="none" paint-order="stroke fill markers" d=" M 873.7699417992317 620.8211367576619 C 873.7699417992317 621.9257062573234 872.8745112988933 622.8211367576619 871.7699417992317 622.8211367576619 C 870.6653722995701 622.8211367576619 869.7699417992317 621.9257062573234 869.7699417992317 620.8211367576619 C 869.7699417992317 619.7165672580003 870.6653722995701 618.8211367576619 871.7699417992317 618.8211367576619 C 872.8745112988933 618.8211367576619 873.7699417992317 619.7165672580003 873.7699417992317 620.8211367576619 Z" fill-opacity="1"/><path fill="none" stroke="rgb(0,0,0)" paint-order="fill stroke markers" d=" M 873.7699417992317 620.8211367576619 C 873.7699417992317 621.9257062573234 872.8745112988933 622.8211367576619 871.7699417992317 622.8211367576619 C 870.6653722995701 622.8211367576619 869.7699417992317 621.9257062573234 869.7699417992317 620.8211367576619 C 869.7699417992317 619.7165672580003 870.6653722995701 618.8211367576619 871.7699417992317 618.8211367576619 C 872.8745112988933 618.8211367576619 873.7699417992317 619.7165672580003 873.7699417992317 620.8211367576619 Z" stroke-opacity="1" stroke-linecap="round" stroke-linejoin="round" stroke-miterlimit="10"/></g></g></svg>